<svg width="158" height="48" viewBox="0 0 158 48" fill="none" xmlns="http://www.w3.org/2000/svg">
<title>Generic Company Logo 2</title>
<path d="M24.0816 0C10.7823 0 0 10.7823 0 24.0816C0 37.381 10.7823 48.1633 24.0816 48.1633C37.381 48.1633 48.1633 37.381 48.1633 24.0816C48.1633 10.7823 37.381 0 24.0816 0ZM24.0816 43.3469C13.4388 43.3469 4.81633 34.7245 4.81633 24.0816C4.81633 13.4388 13.4388 4.81633 24.0816 4.81633C34.7245 4.81633 43.3469 13.4388 43.3469 24.0816C43.3469 34.7245 34.7245 43.3469 24.0816 43.3469Z" fill="currentColor"/>
<path d="M80.4013 48H74.3217L70.4891 41.3878H59.585L55.7524 48H49.6728L64.9082 24.3265H75.0592L80.4013 48ZM69.6054 36.7347L65.0306 29.0204L60.4558 36.7347H69.6054Z" fill="currentColor"/>
<path d="M109.133 48H104.282V34.5306L97.5885 48H92.2143L84.8606 34.5306V48H80V24.3265H88.0442L94.898 36.49L101.752 24.3265H109.133V48Z" fill="currentColor"/>
<path d="M131.643 48H112.935V43.3469H117.588V28.9796H112.935V24.3265H131.643V28.9796H126.99V34.6939H131.643V39.3469H126.99V43.3469H131.643V48Z" fill="currentColor"/>
</svg> 