<svg width="158" height="48" viewBox="0 0 158 48" fill="none" xmlns="http://www.w3.org/2000/svg">
<title>Generic Company Logo 1</title>
<path d="M48.1633 48H32.2245L24.0816 30.2041L15.9388 48H0L24.0816 0L48.1633 48Z" fill="currentColor"/>
<path d="M80.4013 48H74.3217L70.4891 41.3878H59.585L55.7524 48H49.6728L64.9082 24.3265H75.0592L80.4013 48ZM69.6054 36.7347L65.0306 29.0204L60.4558 36.7347H69.6054Z" fill="currentColor"/>
<path d="M109.133 48H104.282V34.5306L97.5885 48H92.2143L84.8606 34.5306V48H80V24.3265H88.0442L94.898 36.49L101.752 24.3265H109.133V48Z" fill="currentColor"/>
<path d="M131.643 48H112.935V43.3469H117.588V28.9796H112.935V24.3265H131.643V28.9796H126.99V34.6939H131.643V39.3469H126.99V43.3469H131.643V48Z" fill="currentColor"/>
<path d="M157.832 48H152.982V34.5306L146.288 48H140.914L133.56 34.5306V48H128.71V24.3265H136.754L143.608 36.49L150.461 24.3265H157.832V48Z" fill="currentColor"/>
</svg> 