<svg xmlns="http://www.w3.org/2000/svg" viewBox="0 0 1440 320">
    <defs>
        <linearGradient id="grad1" x1="0%" y1="0%" x2="100%" y2="0%">
            <stop offset="0%" style="stop-color:#17283B;stop-opacity:1" />
            <stop offset="100%" style="stop-color:#111;stop-opacity:1" />
        </linearGradient>
    </defs>
    <path fill="url(#grad1)" fill-opacity="1" d="M0,224L48,229.3C96,235,192,245,288,250.7C384,256,480,256,576,234.7C672,213,768,171,864,138.7C960,107,1056,85,1152,90.7C1248,96,1344,128,1392,144L1440,160L1440,0L1392,0C1344,0,1248,0,1152,0C1056,0,960,0,864,0C768,0,672,0,576,0C480,0,384,0,288,0C192,0,96,0,48,0L0,0Z"></path>
    <path fill="#f39c12" fill-opacity="0.5" d="M0,192L48,197.3C96,203,192,213,288,208C384,203,480,181,576,176C672,171,768,181,864,192C960,203,1056,213,1152,202.7C1248,192,1344,160,1392,144L1440,128L1440,0L1392,0C1344,0,1248,0,1152,0C1056,0,960,0,864,0C768,0,672,0,576,0C480,0,384,0,288,0C192,0,96,0,48,0L0,0Z"></path>
    <path fill="#1fbbd2" fill-opacity="0.6" d="M0,288L48,272C96,256,192,224,288,197.3C384,171,480,149,576,160C672,171,768,213,864,240C960,267,1056,277,1152,256C1248,235,1344,181,1392,154.7L1440,128L1440,0L1392,0C1344,0,1248,0,1152,0C1056,0,960,0,864,0C768,0,672,0,576,0C480,0,384,0,288,0C192,0,96,0,48,0L0,0Z"></path>
</svg> 