<svg width="800" height="600" viewBox="0 0 800 600" fill="none" xmlns="http://www.w3.org/2000/svg">
    <defs>
        <linearGradient id="grad1" x1="0%" y1="0%" x2="100%" y2="100%">
            <stop offset="0%" style="stop-color:#1FBBD2;stop-opacity:1" />
            <stop offset="100%" style="stop-color:#1c9aa8;stop-opacity:1" />
        </linearGradient>
        <filter id="noise" x="0" y="0" width="100%" height="100%">
            <feTurbulence type="fractalNoise" baseFrequency="0.6" numOctaves="2" stitchTiles="stitch" />
            <feComposite operator="in" in2="SourceGraphic" result="map"/>
            <feBlend in="SourceGraphic" in2="map" mode="screen" />
        </filter>
    </defs>
    <rect width="800" height="600" fill="#0A192F"/>
    <g opacity="0.8" filter="url(#noise)">
        <path d="M-50,650 C 150,500 300,700 500,550 C 700,400 850,500 850,300 L 850,600 L -50,600 Z" fill="#0F2A4D" />
        <path d="M850,-50 C 650,100 500,-100 300,50 C 100,200 -50,100 -50,300 L -50,-50 Z" fill="url(#grad1)" />
        <path d="M200,-50 C 250,150 50,250 300,300 C 550,350 450,150 650,200 L 750, -50 Z" fill="#F39C12" />
        <path d="M-50,400 L 150,350 L 50,600 Z" fill="#F39C12" opacity="0.7" />
        <path d="M850,450 L 650,500 L 750,600 Z" fill="url(#grad1)" />
    </g>
</svg> 