<?xml version="1.0" encoding="UTF-8"?>
<svg id="Layer_1" data-name="Layer 1" xmlns="http://www.w3.org/2000/svg" xmlns:xlink="http://www.w3.org/1999/xlink" viewBox="0 0 373.27 249.31">
  <defs>
    <style>
      .cls-1 {
        mask: url(#mask);
      }

      .cls-2, .cls-3, .cls-4, .cls-5, .cls-6, .cls-7, .cls-8, .cls-9, .cls-10, .cls-11 {
        isolation: isolate;
      }

      .cls-2, .cls-10 {
        opacity: .7;
      }

      .cls-3, .cls-6 {
        opacity: .6;
      }

      .cls-4, .cls-8 {
        opacity: .8;
      }

      .cls-5, .cls-7 {
        opacity: .9;
      }

      .cls-6, .cls-7, .cls-12 {
        fill: #e8f4fd;
      }

      .cls-13 {
        mask: url(#mask-1);
      }

      .cls-8, .cls-9, .cls-14 {
        fill: #b3d9f2;
      }

      .cls-9 {
        opacity: .5;
      }

      .cls-15 {
        fill: #fff;
      }

      .cls-10, .cls-11, .cls-16 {
        fill: #7fb3d1;
      }

      .cls-11 {
        opacity: .4;
      }
    </style>
    <mask id="mask" x="0" y="0" width="373.27" height="249.31" maskUnits="userSpaceOnUse">
      <g id="arrow-mask">
        <rect class="cls-15" width="373.27" height="249.31"/>
        <path d="M199.29,124.77V34.83s1.79-6.31,7.98-2.74l66.6,59.45s3.22,5.48-2.14,7.74l-22.4,2.62s-2.86,1.67.71,6.2l9.89,19.54s3.1,4.41.24,6.55l-15.13,8.7s-4.65,1.67-6.55-1.19l-12.75-23.35s-1.83-3.69-5.8.36l-12.55,8.82s-5.48,4.17-8.1-2.74v-.02Z"/>
      </g>
    </mask>
    <mask id="mask-1" x="0" y="0" width="373.27" height="249.31" maskUnits="userSpaceOnUse">
      <g id="arrow-mask-2" data-name="arrow-mask">
        <rect class="cls-15" width="373.27" height="249.31"/>
        <path d="M199.29,124.77V34.83s1.79-6.31,7.98-2.74l66.6,59.45s3.22,5.48-2.14,7.74l-22.4,2.62s-2.86,1.67.71,6.2l9.89,19.54s3.1,4.41.24,6.55l-15.13,8.7s-4.65,1.67-6.55-1.19l-12.75-23.35s-1.83-3.69-5.8.36l-12.55,8.82s-5.48,4.17-8.1-2.74v-.02Z"/>
      </g>
    </mask>
  </defs>
  <g class="cls-1">
    <path class="cls-7" d="M159.11,136.27v29.17c.52-.07,1.03-.15,1.54-.24v-29.48c-.51.2-1.02.38-1.54.55ZM158.94,40.59c-2.89-.41-5.84-.62-8.84-.62-34.82,0-63.05,28.23-63.05,63.05s28.23,63.05,63.05,63.05c1.11,0,2.2-.03,3.29-.09v-28.38c-1.65.24-3.34.36-5.06.36-19.3,0-34.94-15.65-34.94-34.94s15.64-34.94,34.94-34.94c3.7,0,7.27.57,10.61,1.64.58.18,1.15.38,1.72.6v-29.47c-.57-.1-1.14-.19-1.72-.27h0Z"/>
  </g>
  <g class="cls-13">
    <path class="cls-8" d="M229.78,124.69l-35.26,34.63s-4.13,5.4-10.8,5.88h-24.46V0h18.43s8.74,3.02,8.74,7.62v111.35l26.41-24.65,4.56-4.26,12.39,34.63h-.01Z"/>
  </g>
  <path class="cls-10" d="M199.29,124.77V34.83s1.79-6.31,7.98-2.74l66.6,59.45s3.22,5.48-2.14,7.74l-22.4,2.62s-2.86,1.67.71,6.2l9.89,19.54s3.1,4.41.24,6.55l-15.13,8.7s-4.65,1.67-6.55-1.19l-12.75-23.35s-1.83-3.69-5.8.36l-12.55,8.82s-5.48,4.17-8.1-2.74v-.02Z"/>
  <g>
    <rect class="cls-6" x="220.05" y="6.04" width="6.43" height="24.62" rx="2.98" ry="2.98"/>
    <rect class="cls-9" x="241.09" y="41.97" width="25.32" height="6.43" rx="2.98" ry="2.98"/>
    <rect class="cls-11" x="230.38" y="21.1" width="29.87" height="6.43" rx="2.98" ry="2.98" transform="translate(64.96 192.38) rotate(-48.64)"/>
  </g>
  <g class="cls-4">
    <g class="cls-5">
      <path class="cls-12" d="M21.12,231.81c-3.03,0-5.65-.53-7.86-1.58-2.22-1.05-4.05-2.47-5.49-4.24-1.45-1.78-2.53-3.74-3.26-5.89-.72-2.15-1.09-4.3-1.09-6.45v-1.18c0-2.24.36-4.43,1.09-6.58.72-2.15,1.82-4.09,3.29-5.82,1.47-1.73,3.3-3.12,5.49-4.18,2.19-1.05,4.76-1.58,7.7-1.58s5.58.55,7.93,1.65c2.35,1.1,4.23,2.64,5.66,4.64,1.42,2,2.23,4.35,2.4,7.07h-6.05c-.31-2.19-1.32-4.02-3.03-5.49-1.71-1.47-4.01-2.2-6.91-2.2-2.5,0-4.58.57-6.25,1.71-1.67,1.14-2.92,2.7-3.75,4.67-.83,1.97-1.25,4.21-1.25,6.71s.42,4.62,1.25,6.61c.83,2,2.09,3.58,3.78,4.74,1.69,1.16,3.8,1.74,6.35,1.74,1.97,0,3.68-.35,5.13-1.05,1.45-.7,2.61-1.64,3.49-2.83.88-1.18,1.4-2.52,1.58-4.01h6.05c-.13,2.76-.93,5.15-2.4,7.17-1.47,2.02-3.4,3.58-5.79,4.7-2.39,1.12-5.08,1.68-8.06,1.68Z"/>
      <path class="cls-12" d="M39.54,187.6v-5h11.18v5h-11.18ZM44.41,230.63v-48.03h6.32v48.03h-6.32Z"/>
      <path class="cls-12" d="M57.24,200.5v-5h11.71v5h-11.71ZM64.41,189.84c-1.4,0-2.45-.37-3.12-1.12-.68-.75-1.02-1.69-1.02-2.83s.34-2.08,1.02-2.83c.68-.75,1.72-1.12,3.12-1.12s2.44.37,3.12,1.12c.68.75,1.02,1.69,1.02,2.83s-.34,2.08-1.02,2.83c-.68.75-1.72,1.12-3.12,1.12ZM62.63,230.63v-35.13h6.32v35.13h-6.32Z"/>
      <path class="cls-12" d="M94.34,231.81c-3.03,0-5.65-.53-7.86-1.58-2.22-1.05-4.05-2.47-5.49-4.24-1.45-1.78-2.53-3.74-3.26-5.89-.72-2.15-1.09-4.3-1.09-6.45v-1.18c0-2.24.36-4.43,1.09-6.58.72-2.15,1.82-4.09,3.29-5.82,1.47-1.73,3.3-3.12,5.49-4.18,2.19-1.05,4.76-1.58,7.7-1.58s5.58.55,7.93,1.65c2.35,1.1,4.23,2.64,5.66,4.64,1.42,2,2.23,4.35,2.4,7.07h-6.05c-.31-2.19-1.32-4.02-3.03-5.49-1.71-1.47-4.01-2.2-6.91-2.2-2.5,0-4.58.57-6.25,1.71-1.67,1.14-2.92,2.7-3.75,4.67-.83,1.97-1.25,4.21-1.25,6.71s.42,4.62,1.25,6.61c.83,2,2.09,3.58,3.78,4.74,1.69,1.16,3.8,1.74,6.35,1.74,1.97,0,3.68-.35,5.13-1.05,1.45-.7,2.61-1.64,3.49-2.83.88-1.18,1.4-2.52,1.58-4.01h6.05c-.13,2.76-.93,5.15-2.4,7.17-1.47,2.02-3.4,3.58-5.79,4.7-2.39,1.12-5.08,1.68-8.06,1.68Z"/>
      <path class="cls-12" d="M117.24,230.63v-48.03h6.32v48.03h-6.32ZM141.45,230.63l-13.22-16.38h-5.79l16.12-18.75h6.65l-14.61,16.91.46-3.36,17.7,21.58h-7.3Z"/>
    </g>
    <g class="cls-4">
      <path class="cls-14" d="M177.05,231.81c-2.89,0-5.47-.64-7.73-1.91-2.26-1.27-4.05-3.12-5.36-5.56-1.32-2.43-2.04-5.36-2.17-8.78h1.71v15.07h-5v-48.03h6.32v23.36l-2.24,4.8c.17-3.82.94-6.93,2.3-9.34,1.36-2.41,3.15-4.2,5.36-5.36,2.21-1.16,4.66-1.74,7.34-1.74,2.5,0,4.78.47,6.84,1.42,2.06.94,3.84,2.24,5.33,3.88,1.49,1.64,2.63,3.55,3.42,5.72.79,2.17,1.18,4.51,1.18,7.01v1.18c0,2.5-.41,4.85-1.22,7.04s-1.98,4.13-3.52,5.82-3.37,3.02-5.49,3.98c-2.13.96-4.48,1.45-7.07,1.45ZM176.32,226.29c2.37,0,4.43-.57,6.18-1.71,1.75-1.14,3.11-2.71,4.08-4.7.96-2,1.45-4.31,1.45-6.94s-.49-4.93-1.48-6.91-2.36-3.5-4.11-4.57c-1.75-1.07-3.79-1.61-6.12-1.61-2.11,0-4.06.47-5.86,1.42-1.8.94-3.23,2.3-4.31,4.08-1.08,1.78-1.61,3.91-1.61,6.41v3.03c0,2.41.55,4.47,1.64,6.18,1.1,1.71,2.54,3.03,4.34,3.95,1.8.92,3.73,1.38,5.79,1.38Z"/>
      <path class="cls-14" d="M198.23,200.5v-5h11.71v5h-11.71ZM205.4,189.84c-1.4,0-2.45-.37-3.12-1.12-.68-.75-1.02-1.69-1.02-2.83s.34-2.08,1.02-2.83c.68-.75,1.72-1.12,3.12-1.12s2.44.37,3.12,1.12c.68.75,1.02,1.69,1.02,2.83s-.34,2.08-1.02,2.83c-.68.75-1.72,1.12-3.12,1.12ZM203.62,230.63v-35.13h6.32v35.13h-6.32Z"/>
      <path class="cls-14" d="M215.14,200.24v-4.74h24.21v4.74h-24.21ZM233.95,231.02c-2.63,0-4.9-.37-6.81-1.12-1.91-.75-3.38-2.03-4.41-3.85-1.03-1.82-1.55-4.29-1.55-7.4v-33.82h6.05v34.61c0,1.89.51,3.35,1.55,4.38,1.03,1.03,2.49,1.55,4.38,1.55h6.18v5.66h-5.4Z"/>
    </g>
  </g>
  <g class="cls-3">
    <g class="cls-2">
      <path class="cls-16" d="M243.96,230.63v-4.27h4.06v4.27h-4.06Z"/>
    </g>
    <g class="cls-3">
      <path class="cls-16" d="M260.17,231.26c-1.61,0-3-.28-4.18-.84-1.18-.56-2.15-1.31-2.92-2.26-.77-.94-1.35-1.99-1.73-3.13-.38-1.14-.58-2.29-.58-3.43v-.63c0-1.19.19-2.36.58-3.5.39-1.14.97-2.18,1.75-3.1.78-.92,1.76-1.66,2.92-2.22,1.17-.56,2.53-.84,4.09-.84s2.97.29,4.22.88c1.25.58,2.25,1.41,3.01,2.47.76,1.06,1.18,2.32,1.28,3.76h-3.22c-.16-1.17-.7-2.14-1.61-2.92-.91-.78-2.13-1.17-3.67-1.17-1.33,0-2.44.3-3.33.91-.89.61-1.55,1.44-1.99,2.49-.44,1.05-.67,2.24-.67,3.57s.22,2.46.67,3.52c.44,1.06,1.11,1.9,2.01,2.52s2.02.93,3.38.93c1.05,0,1.96-.19,2.73-.56.77-.37,1.39-.88,1.86-1.5s.75-1.34.84-2.13h3.22c-.07,1.47-.5,2.74-1.28,3.82-.78,1.07-1.81,1.91-3.08,2.5s-2.7.89-4.29.89Z"/>
      <path class="cls-16" d="M280.57,231.26c-1.63,0-3.07-.28-4.3-.84-1.24-.56-2.28-1.3-3.13-2.22-.85-.92-1.49-1.95-1.92-3.1-.43-1.14-.65-2.31-.65-3.5v-.63c0-1.19.22-2.36.67-3.52.44-1.15,1.1-2.19,1.96-3.12.86-.92,1.91-1.66,3.15-2.2,1.24-.55,2.65-.82,4.23-.82s3,.27,4.24.82c1.24.55,2.29,1.28,3.15,2.2.86.92,1.52,1.96,1.96,3.12.44,1.16.67,2.33.67,3.52v.63c0,1.19-.22,2.36-.65,3.5-.43,1.14-1.07,2.18-1.92,3.1-.85.92-1.9,1.66-3.13,2.22-1.24.56-2.67.84-4.3.84ZM280.57,228.25c1.4,0,2.6-.31,3.59-.93.99-.62,1.75-1.45,2.27-2.5.53-1.05.79-2.23.79-3.54s-.27-2.52-.81-3.57c-.54-1.05-1.3-1.88-2.29-2.49-.99-.61-2.18-.91-3.55-.91s-2.53.3-3.54.91c-1,.61-1.77,1.44-2.31,2.49-.54,1.05-.8,2.24-.8,3.57s.26,2.48.79,3.54c.53,1.05,1.28,1.88,2.28,2.5.99.62,2.19.93,3.59.93Z"/>
      <path class="cls-16" d="M294.22,230.63v-18.69h2.66v8.02h-.42c0-1.82.24-3.37.72-4.64.48-1.27,1.2-2.25,2.15-2.92.96-.68,2.17-1.01,3.64-1.01h.14c1.47,0,2.69.34,3.66,1.01.97.68,1.69,1.65,2.15,2.92.47,1.27.7,2.82.7,4.64h-.98c0-1.82.24-3.37.73-4.64.49-1.27,1.22-2.25,2.19-2.92.97-.68,2.19-1.01,3.66-1.01h.14c1.47,0,2.7.34,3.67,1.01.98.68,1.71,1.65,2.19,2.92.48,1.27.72,2.82.72,4.64v10.67h-3.36v-11.41c0-1.52-.37-2.69-1.12-3.52-.75-.83-1.79-1.24-3.11-1.24s-2.49.44-3.33,1.31-1.26,2.09-1.26,3.66v11.2h-3.36v-11.41c0-1.52-.37-2.69-1.12-3.52-.75-.83-1.79-1.24-3.12-1.24s-2.48.44-3.33,1.31c-.84.88-1.26,2.09-1.26,3.66v11.2h-3.36Z"/>
      <path class="cls-16" d="M326.03,230.63v-4.27h4.06v4.27h-4.06Z"/>
      <path class="cls-16" d="M339.65,231.12c-1.4,0-2.61-.24-3.62-.72s-1.8-1.17-2.34-2.08c-.55-.91-.82-2.01-.82-3.29s.3-2.44.89-3.33c.6-.89,1.46-1.56,2.61-2.01s2.52-.68,4.13-.68h5.07v2.52h-5.21c-1.35,0-2.39.33-3.12.98-.72.65-1.08,1.49-1.08,2.52s.36,1.85,1.08,2.48c.72.63,1.76.95,3.12.95.79,0,1.55-.15,2.28-.44.72-.29,1.32-.78,1.8-1.47.48-.69.74-1.64.79-2.85l.91,1.33c-.12,1.33-.44,2.44-.96,3.34-.52.9-1.25,1.58-2.17,2.05s-2.04.7-3.34.7ZM345.77,230.63v-5.6h-.56v-6.48c0-1.28-.33-2.25-1-2.91-.66-.65-1.64-.98-2.92-.98-.72,0-1.47.01-2.24.04-.77.02-1.5.05-2.21.07-.7.02-1.31.06-1.82.11v-2.94c.51-.05,1.06-.09,1.63-.12.57-.04,1.16-.06,1.77-.07.61-.01,1.19-.02,1.75-.02,1.91,0,3.48.23,4.69.68,1.21.46,2.11,1.2,2.69,2.22.58,1.03.88,2.42.88,4.17v11.83h-2.66Z"/>
      <path class="cls-16" d="M359.67,231.19c-2.22,0-3.92-.72-5.11-2.17-1.19-1.45-1.79-3.53-1.79-6.26v-10.85h3.36v11.51c0,1.47.4,2.62,1.19,3.45.79.83,1.87,1.24,3.22,1.24s2.54-.45,3.43-1.35c.89-.9,1.33-2.13,1.33-3.69v-11.17h3.36v18.72h-2.66v-8.01h.42c0,1.84-.25,3.4-.74,4.67-.49,1.27-1.22,2.24-2.19,2.91-.97.67-2.2,1-3.69,1h-.14Z"/>
    </g>
  </g>
</svg>