<?xml version="1.0" encoding="UTF-8"?>
<svg id="Layer_1" data-name="Layer 1" xmlns="http://www.w3.org/2000/svg" viewBox="0 0 373.27 249.31">
  <defs>
    <style>
      .cls-1 {
        font-size: 35px;
      }

      .cls-1, .cls-2 {
        font-family: Sora-SemiBold, Sora;
        font-variation-settings: 'wght' 600;
        font-weight: 600;
      }

      .cls-2 {
        font-size: 65.79px;
        letter-spacing: -.03em;
      }

      .cls-6 {
        letter-spacing: -.05em;
      }

      .cls-7 {
        letter-spacing: -.04em;
      }
    </style>
    <mask id="arrow-mask">
      <rect width="373.27" height="249.31" fill="white"/>
      <path d="M199.29,124.77V34.83s1.79-6.31,7.98-2.74l66.6,59.45s3.22,5.48-2.14,7.74l-22.4,2.62s-2.86,1.67.71,6.2l9.89,19.54s3.1,4.41.24,6.55l-15.13,8.7s-4.65,1.67-6.55-1.19l-12.75-23.35s-1.83-3.69-5.8.36l-12.55,8.82s-5.48,4.17-8.1-2.74Z" fill="black"/>
    </mask>
  </defs>
  <!-- Bottom layer: Main circular element (light blue) with mask -->
  <path d="M159.11,136.27v29.17c.52-.07,1.03-.15,1.54-.24v-29.48c-.51.2-1.02.38-1.54.55ZM158.94,40.59c-2.89-.41-5.84-.62-8.84-.62-34.82,0-63.05,28.23-63.05,63.05s28.23,63.05,63.05,63.05c1.11,0,2.2-.03,3.29-.09v-28.38c-1.65.24-3.34.36-5.06.36-19.3,0-34.94-15.65-34.94-34.94s15.64-34.94,34.94-34.94c3.7,0,7.27.57,10.61,1.64.58.18,1.15.38,1.72.6v-29.47c-.57-.1-1.14-.19-1.72-.27Z" fill="#e8f4fd" opacity="0.9" mask="url(#arrow-mask)"/>
  
  <!-- Middle layer: Darker blue element with mask -->
  <path d="M229.78,124.69l-35.26,34.63s-4.13,5.4-10.8,5.88h-24.46V0h18.43s8.74,3.02,8.74,7.62v111.35l26.41-24.65,4.56-4.26,12.39,34.63Z" fill="#b3d9f2" opacity="0.8" mask="url(#arrow-mask)"/>
  
  <!-- Top layer: Arrow/cursor element (now light blue) - always on top -->
  <path d="M199.29,124.77V34.83s1.79-6.31,7.98-2.74l66.6,59.45s3.22,5.48-2.14,7.74l-22.4,2.62s-2.86,1.67.71,6.2l9.89,19.54s3.1,4.41.24,6.55l-15.13,8.7s-4.65,1.67-6.55-1.19l-12.75-23.35s-1.83-3.69-5.8.36l-12.55,8.82s-5.48,4.17-8.1-2.74Z" fill="#7fb3d1" opacity="0.7"/>
  
  <!-- Accent elements with different shades -->
  <g>
    <rect x="220.05" y="6.04" width="6.43" height="24.62" rx="2.98" ry="2.98" fill="#e8f4fd" opacity="0.6"/>
    <rect x="250.53" y="32.53" width="6.43" height="25.32" rx="2.98" ry="2.98" transform="translate(298.94 -208.56) rotate(90)" fill="#b3d9f2" opacity="0.5"/>
    <rect x="242.11" y="9.38" width="6.43" height="29.87" rx="2.98" ry="2.98" transform="translate(77.25 -156.04) rotate(41.36)" fill="#7fb3d1" opacity="0.4"/>
  </g>
  
  <!-- Text elements with different shades -->
  <text class="cls-2" transform="translate(0 230.63)">
    <tspan x="0" y="0" fill="#e8f4fd" opacity="0.9">click</tspan>
    <tspan x="152.44" y="0" fill="#b3d9f2" opacity="0.8">bit</tspan>
  </text>
  <text class="cls-1" transform="translate(241.41 230.63)">
    <tspan class="cls-6" x="0" y="0" fill="#7fb3d1" opacity="0.7">.</tspan>
    <tspan class="cls-7" x="7.52" y="0" fill="#7fb3d1" opacity="0.6">com.au</tspan>
  </text>
</svg> 